<?xml version="1.0" standalone="no"?>
<!DOCTYPE svg PUBLIC "-//W3C//DTD SVG 20010904//EN"
 "http://www.w3.org/TR/2001/REC-SVG-20010904/DTD/svg10.dtd">
<svg version="1.0" xmlns="http://www.w3.org/2000/svg"
 width="260.000000pt" height="260.000000pt" viewBox="0 0 260.000000 260.000000"
 preserveAspectRatio="xMidYMid meet">
<metadata>
Created by potrace 1.11, written by Peter Selinger 2001-2013
</metadata>
<g transform="translate(0.000000,260.000000) scale(0.100000,-0.100000)"
fill="#000000" stroke="none">
<path d="M2 2511 c2 -78 5 -88 19 -81 21 12 59 9 52 -4 -4 -5 1 -7 10 -3 11 4
14 2 10 -9 -3 -7 0 -14 6 -14 6 0 11 8 11 18 0 14 2 15 10 2 5 -8 10 -11 10
-6 0 4 11 1 25 -8 13 -9 28 -16 32 -16 4 0 1 4 -7 10 -26 16 -4 21 26 6 19
-10 30 -12 35 -5 3 6 9 10 12 9 4 -1 20 -5 37 -10 17 -5 28 -5 25 0 -8 13 18
19 37 8 10 -5 33 -9 53 -10 19 -1 32 -5 29 -10 -3 -4 6 -4 19 1 14 6 28 7 31
4 3 -4 6 -1 6 6 0 8 5 9 19 2 21 -12 32 -5 24 15 -3 8 5 16 21 20 14 3 31 13
38 22 11 14 10 15 -7 8 -23 -10 -76 -19 -57 -10 6 3 12 13 12 21 0 12 3 13 14
4 11 -9 20 -9 34 -2 28 15 95 -15 116 -52 12 -22 21 -27 34 -22 9 4 24 8 32 9
9 1 21 6 28 10 9 5 15 1 19 -13 3 -11 9 -18 14 -16 4 3 6 13 3 23 -5 15 -4 15
6 -1 10 -15 13 -16 26 -2 9 8 26 13 40 11 19 -4 24 0 24 15 0 10 5 19 10 19 6
0 10 -7 10 -15 0 -32 39 -15 57 25 l12 25 0 -30 c1 -16 5 -25 9 -20 4 6 17 11
30 13 21 2 23 -2 20 -30 -1 -18 -9 -38 -17 -44 -11 -9 -9 -10 10 -8 13 1 29 3
34 3 6 1 5 5 -2 9 -12 8 -21 107 -11 117 6 6 29 -94 29 -126 1 -26 29 -18 29
8 0 13 5 23 10 23 6 0 10 9 10 20 0 12 -7 20 -17 20 -15 0 -15 1 2 13 11 9 15
19 10 27 -6 9 2 11 34 8 29 -2 41 0 41 10 0 8 -5 10 -12 6 -10 -5 -10 -4 -2 5
10 11 40 18 82 20 6 1 12 8 12 17 0 12 6 15 21 11 14 -4 19 -2 16 7 -3 7 1 13
9 13 7 0 11 -4 8 -8 -2 -4 0 -10 6 -14 5 -3 10 -2 10 4 0 5 9 8 19 6 11 -2 22
2 24 9 4 10 -28 13 -145 15 l-151 2 5 -25 c3 -14 1 -26 -3 -26 -9 0 -13 15
-10 38 2 9 -117 12 -564 12 l-566 0 3 -89z m408 -91 c0 -5 -5 -10 -11 -10 -5
0 -7 5 -4 10 3 6 8 10 11 10 2 0 4 -4 4 -10z"/>
<path d="M2177 2582 c-10 -10 -14 -21 -11 -25 3 -3 3 -11 -1 -17 -5 -8 -10 -9
-14 -2 -4 7 -21 7 -55 0 -52 -11 -127 -49 -108 -56 6 -2 9 -9 6 -17 -3 -7 -1
-16 5 -20 6 -3 11 -10 11 -16 0 -13 -28 -11 -32 2 -5 14 -75 -6 -96 -28 -7 -7
-20 -13 -28 -13 -8 0 -23 -9 -34 -20 -11 -11 -17 -20 -13 -20 4 0 -2 -7 -13
-15 -11 -8 -14 -15 -6 -15 6 0 12 -7 12 -16 0 -9 5 -12 12 -8 7 5 8 3 3 -5 -4
-7 -18 -11 -31 -8 -18 3 -24 0 -24 -13 0 -10 8 -21 17 -24 15 -6 15 -8 3 -16
-8 -6 -11 -10 -6 -10 5 0 2 -8 -7 -18 -13 -15 -15 -25 -7 -53 6 -18 10 -35 10
-36 0 -2 -8 -3 -19 -3 -26 0 -54 46 -49 81 4 24 2 26 -13 18 -13 -7 -21 -5
-28 8 -6 10 -11 14 -12 8 0 -5 -5 1 -9 15 -8 24 -8 23 -9 -7 -1 -23 -6 -33
-16 -33 -18 0 -35 -38 -27 -59 4 -10 7 -11 10 -3 2 7 8 12 13 12 16 0 -1 -21
-25 -30 -20 -8 -20 -8 8 -19 62 -24 47 -26 -369 -36 -424 -10 -678 -11 -650
-2 24 8 35 27 15 27 -14 0 -8 23 10 37 13 11 13 12 0 13 -36 0 -77 -59 -61
-88 13 -25 8 -61 -9 -72 -11 -8 -9 -9 10 -7 19 3 25 10 24 29 0 27 19 28 41 4
11 -12 76 -16 68 -4 -4 8 14 12 32 8 6 -1 17 -2 25 -1 8 0 36 1 63 1 26 0 47
4 47 9 0 10 18 9 35 0 13 -8 58 -5 73 5 7 4 17 4 22 1 6 -3 13 1 16 10 6 15 8
15 24 0 14 -13 19 -13 23 -3 4 7 4 1 2 -14 -3 -22 2 -28 24 -36 21 -8 28 -7
28 4 0 7 -4 11 -9 8 -4 -3 -8 0 -8 6 0 6 -4 8 -10 5 -5 -3 -10 -2 -10 4 0 5 8
9 18 9 9 0 25 3 35 7 10 4 17 3 17 -3 0 -6 -6 -13 -12 -15 -23 -9 36 -7 70 2
18 6 32 6 32 1 0 -5 13 -5 28 1 21 7 36 6 58 -6 34 -18 44 -19 44 -4 0 5 -5 7
-11 3 -7 -4 -10 -1 -7 6 2 8 10 16 18 18 7 3 10 0 6 -7 -4 -6 0 -11 11 -11 14
0 15 -2 4 -9 -8 -5 -9 -11 -3 -15 6 -4 15 2 21 11 8 13 10 14 11 4 0 -12 3
-12 12 -3 17 17 89 15 129 -5 41 -20 51 -32 45 -56 -4 -15 -2 -16 11 -6 11 10
16 10 22 1 4 -6 17 -10 29 -7 12 2 24 0 27 -6 4 -5 14 -9 23 -9 15 0 15 2 2
10 -8 5 -10 10 -4 10 7 0 14 12 17 26 3 19 1 24 -10 20 -8 -3 -19 -6 -24 -6
-4 0 -6 -7 -2 -16 5 -14 3 -14 -15 -3 -11 7 -18 17 -16 21 3 4 -1 8 -8 8 -9 0
-9 3 2 10 13 9 13 10 0 10 -12 1 -11 3 3 11 9 5 22 7 27 4 6 -3 10 -1 10 5 0
7 7 9 16 6 8 -3 30 0 49 8 27 11 38 12 57 2 32 -17 84 -27 92 -18 4 4 25 12
47 18 36 11 40 11 34 -4 -5 -14 -4 -14 13 1 10 9 27 17 38 17 15 -1 13 -4 -10
-16 -19 -11 -25 -19 -18 -26 6 -6 8 -17 5 -25 -4 -11 0 -14 13 -11 11 2 18 11
16 21 -2 9 2 17 8 17 6 0 8 -4 5 -10 -9 -15 11 -12 27 4 8 7 24 17 36 20 17 6
22 3 22 -9 0 -9 4 -13 10 -10 7 4 7 -3 0 -19 -8 -23 -7 -26 13 -26 13 0 29 6
36 13 10 8 12 8 7 0 -3 -6 -2 -14 3 -17 13 -9 22 86 15 158 -4 35 -4 76 0 90
5 22 10 25 35 20 16 -3 31 -1 35 4 4 7 -4 9 -21 7 -16 -2 -22 -2 -15 1 6 3 12
10 12 15 0 11 -23 7 -32 -6 -4 -5 -8 72 -8 173 0 100 -4 182 -8 182 -5 0 -16
-8 -25 -18z m-67 -72 c-8 -5 -19 -10 -25 -10 -5 0 -3 5 5 10 8 5 20 10 25 10
6 0 3 -5 -5 -10z m-80 -106 c0 -8 -19 -13 -24 -6 -3 5 1 9 9 9 8 0 15 -2 15
-3z m-60 -44 c8 -5 11 -10 5 -10 -5 0 -17 5 -25 10 -8 5 -10 10 -5 10 6 0 17
-5 25 -10z m10 -54 c0 -3 -4 -8 -10 -11 -5 -3 -10 -1 -10 4 0 6 5 11 10 11 6
0 10 -2 10 -4z m180 -270 c0 -2 -7 -7 -16 -10 -8 -3 -12 -2 -9 4 6 10 25 14
25 6z"/>
<path d="M1544 2439 c-3 -6 -1 -16 5 -22 8 -8 11 -5 11 11 0 24 -5 28 -16 11z"/>
<path d="M563 2423 c-8 -3 -13 -24 -13 -56 1 -35 3 -47 9 -37 9 15 25 101 19
99 -2 0 -9 -3 -15 -6z"/>
<path d="M975 2404 c-9 -14 -14 -28 -12 -31 3 -3 13 9 22 26 19 38 14 41 -10
5z"/>
<path d="M876 2412 c-3 -5 1 -9 9 -9 8 0 12 4 9 9 -3 4 -7 8 -9 8 -2 0 -6 -4
-9 -8z"/>
<path d="M651 2353 c1 -62 6 -56 11 15 2 23 0 42 -4 42 -5 0 -7 -26 -7 -57z"/>
<path d="M921 2394 c0 -11 3 -14 6 -6 3 7 2 16 -1 19 -3 4 -6 -2 -5 -13z"/>
<path d="M623 2355 c0 -27 2 -38 4 -22 2 15 2 37 0 50 -2 12 -4 0 -4 -28z"/>
<path d="M748 2383 c7 -3 16 -2 19 1 4 3 -2 6 -13 5 -11 0 -14 -3 -6 -6z"/>
<path d="M995 2371 c-3 -5 -1 -12 5 -16 12 -7 30 2 30 16 0 12 -27 12 -35 0z"/>
<path d="M771 2354 c0 -11 3 -14 6 -6 3 7 2 16 -1 19 -3 4 -6 -2 -5 -13z"/>
<path d="M925 2359 c-10 -15 1 -23 20 -15 9 3 13 10 10 16 -8 13 -22 13 -30
-1z"/>
<path d="M716 2323 c9 -51 14 -54 14 -10 0 20 -5 39 -11 42 -7 5 -8 -5 -3 -32z"/>
<path d="M743 2315 c0 -27 2 -38 4 -22 2 15 2 37 0 50 -2 12 -4 0 -4 -28z"/>
<path d="M1543 2345 c-7 -21 -8 -21 67 -14 l65 6 -63 1 c-39 1 -61 6 -57 12 3
6 4 10 0 10 -3 0 -8 -7 -12 -15z"/>
<path d="M1160 2340 c0 -5 5 -10 11 -10 5 0 7 5 4 10 -3 6 -8 10 -11 10 -2 0
-4 -4 -4 -10z"/>
<path d="M812 2310 c0 -19 2 -27 5 -17 2 9 2 25 0 35 -3 9 -5 1 -5 -18z"/>
<path d="M1064 2325 c-18 -13 -18 -14 4 -8 12 3 25 9 28 14 8 14 -10 11 -32
-6z"/>
<path d="M1508 2323 c7 -3 16 -2 19 1 4 3 -2 6 -13 5 -11 0 -14 -3 -6 -6z"/>
<path d="M980 2313 c-8 -2 -21 -7 -29 -9 -8 -2 -12 -7 -9 -10 3 -2 17 0 32 5
28 11 59 5 50 -10 -3 -5 -10 -9 -15 -9 -6 0 -7 5 -3 11 5 8 1 8 -14 0 -12 -6
-24 -17 -28 -24 -5 -7 0 -6 11 3 14 11 19 12 22 2 3 -6 9 -9 15 -6 7 5 9 -3 4
-22 l-6 -29 15 25 15 25 -4 -27 c-3 -15 -7 -32 -11 -38 -3 -5 0 -7 9 -4 24 9
28 35 10 62 -11 17 -13 27 -6 30 6 2 8 10 5 18 -5 14 -34 17 -63 7z"/>
<path d="M1120 2305 c0 -8 2 -15 4 -15 2 0 6 7 10 15 3 8 1 15 -4 15 -6 0 -10
-7 -10 -15z"/>
<path d="M1448 2313 c6 -2 18 -2 25 0 6 3 1 5 -13 5 -14 0 -19 -2 -12 -5z"/>
<path d="M547 2299 c7 -7 15 -10 18 -7 3 3 -2 9 -12 12 -14 6 -15 5 -6 -5z"/>
<path d="M2328 2291 c4 -13 12 -22 16 -21 15 3 26 -24 13 -32 -7 -4 6 -8 28
-8 l39 0 -24 17 c-14 9 -29 22 -35 28 -5 6 -18 17 -28 24 -16 12 -17 12 -9 -8z"/>
<path d="M519 2298 c-1 -2 -3 -13 -4 -25 -2 -18 3 -23 20 -23 13 0 25 7 29 15
4 10 -1 14 -17 12 -13 -1 -21 3 -19 11 2 10 -5 18 -9 10z"/>
<path d="M587 2280 c3 -11 7 -20 8 -20 1 0 5 9 8 20 3 12 0 20 -8 20 -8 0 -11
-8 -8 -20z"/>
<path d="M907 2293 c-2 -4 5 -17 16 -28 l20 -20 -13 25 c-16 32 -17 33 -23 23z"/>
<path d="M1556 2291 c-6 -9 1 -56 11 -74 2 -4 11 0 19 8 12 11 13 22 7 42 -10
29 -27 40 -37 24z"/>
<path d="M1635 2290 c3 -5 8 -10 11 -10 2 0 4 5 4 10 0 6 -5 10 -11 10 -5 0
-7 -4 -4 -10z"/>
<path d="M1426 2272 c-3 -6 -2 -21 3 -33 l8 -24 8 24 c7 24 -8 51 -19 33z"/>
<path d="M1510 2270 c0 -5 5 -10 11 -10 5 0 7 5 4 10 -3 6 -8 10 -11 10 -2 0
-4 -4 -4 -10z"/>
<path d="M682 2250 c0 -14 2 -19 5 -12 2 6 2 18 0 25 -3 6 -5 1 -5 -13z"/>
<path d="M1354 2255 c-10 -26 1 -36 18 -16 14 17 14 20 2 25 -8 3 -17 -1 -20
-9z"/>
<path d="M976 2243 c-4 -11 -4 -27 0 -36 6 -18 34 -31 34 -17 0 6 -4 10 -10
10 -5 0 -7 6 -4 14 3 8 1 23 -4 32 -9 16 -10 16 -16 -3z"/>
<path d="M1300 2250 c0 -5 5 -10 11 -10 5 0 7 5 4 10 -3 6 -8 10 -11 10 -2 0
-4 -4 -4 -10z"/>
<path d="M2273 2253 c9 -2 23 -2 30 0 6 3 -1 5 -18 5 -16 0 -22 -2 -12 -5z"/>
<path d="M716 2224 c-10 -25 1 -29 14 -5 6 12 7 21 1 21 -5 0 -12 -7 -15 -16z"/>
<path d="M853 2225 c-18 -20 -16 -27 5 -17 9 5 22 7 29 5 6 -2 15 1 19 8 5 8
2 10 -8 6 -9 -3 -19 -2 -24 3 -5 5 -15 2 -21 -5z"/>
<path d="M2570 2230 l-25 -8 28 -1 c15 -1 27 4 27 9 0 6 -1 10 -2 9 -2 -1 -14
-5 -28 -9z"/>
<path d="M1381 2214 c0 -11 3 -14 6 -6 3 7 2 16 -1 19 -3 4 -6 -2 -5 -13z"/>
<path d="M1285 2191 c-11 -5 -23 -7 -27 -4 -5 2 -8 -1 -8 -7 0 -7 7 -9 16 -6
13 5 15 2 11 -14 -3 -14 -1 -20 6 -17 7 2 12 10 12 18 0 8 4 20 8 27 9 14 9
14 -18 3z"/>
<path d="M842 2173 c11 -3 15 -10 11 -20 -4 -11 -2 -14 5 -9 21 13 13 36 -10
35 -17 -1 -18 -3 -6 -6z"/>
<path d="M806 2155 c-3 -8 -1 -15 4 -15 6 0 10 7 10 15 0 8 -2 15 -4 15 -2 0
-6 -7 -10 -15z"/>
<path d="M999 2146 c-48 -9 -55 -14 -50 -29 4 -10 11 -18 15 -17 5 1 12 -4 17
-11 5 -9 10 -5 14 14 4 15 13 28 21 28 8 1 23 2 34 3 10 0 25 7 32 14 15 15
-3 15 -83 -2z"/>
<path d="M1227 2144 c-13 -13 -7 -26 9 -20 13 5 14 1 9 -24 -5 -25 -4 -29 10
-24 11 4 14 13 9 28 -8 27 -28 49 -37 40z"/>
<path d="M898 2133 c7 -3 16 -2 19 1 4 3 -2 6 -13 5 -11 0 -14 -3 -6 -6z"/>
<path d="M1540 2131 c0 -17 15 -19 28 -5 11 12 9 14 -8 14 -11 0 -20 -4 -20
-9z"/>
<path d="M803 2108 c-2 -26 12 -38 47 -38 l24 0 -24 17 c-14 9 -30 23 -35 31
-8 10 -11 8 -12 -10z"/>
<path d="M1280 2104 c0 -14 4 -23 10 -19 6 3 10 15 10 26 0 10 -4 19 -10 19
-5 0 -10 -12 -10 -26z"/>
<path d="M1361 2104 c0 -11 3 -14 6 -6 3 7 2 16 -1 19 -3 4 -6 -2 -5 -13z"/>
<path d="M1510 2102 c0 -5 7 -9 15 -9 8 0 12 4 9 9 -3 4 -9 8 -15 8 -5 0 -9
-4 -9 -8z"/>
<path d="M1408 2093 c7 -3 16 -2 19 1 4 3 -2 6 -13 5 -11 0 -14 -3 -6 -6z"/>
<path d="M498 2069 c-2 -7 -85 -10 -251 -9 l-247 1 0 -105 c0 -85 3 -105 16
-110 22 -9 24 -8 24 9 0 8 5 15 11 15 5 0 8 -4 5 -9 -8 -13 4 -42 15 -35 5 3
7 9 4 14 -8 12 37 9 54 -4 11 -8 13 -8 8 1 -4 7 0 13 10 16 10 2 8 3 -5 2 -23
-2 -27 3 -14 21 8 12 81 13 99 1 10 -6 8 -13 -7 -29 -22 -24 -26 -38 -9 -38 5
0 8 4 4 9 -3 5 7 19 21 30 15 12 23 21 18 21 -4 0 -3 5 3 11 9 9 18 8 37 -5
22 -14 26 -14 26 -2 0 20 17 29 26 15 4 -8 3 -9 -4 -5 -8 5 -12 -1 -11 -16 0
-13 3 -17 6 -10 2 6 9 10 14 6 5 -3 9 4 9 16 0 18 3 19 20 10 17 -9 20 -8 20
7 0 15 3 14 19 -6 l18 -24 6 22 c5 20 8 21 28 10 17 -9 24 -9 27 0 2 6 10 17
17 24 10 10 10 18 1 35 -7 13 -16 19 -20 15 -5 -4 -7 -1 -4 7 3 8 15 14 26 13
18 -2 21 2 18 26 -3 31 -32 69 -38 50z m-67 -93 c7 4 10 3 7 -2 -3 -5 0 -15 8
-22 13 -12 18 -8 15 11 -1 9 3 9 23 1 9 -3 16 -14 16 -23 0 -13 -2 -13 -9 -2
-5 7 -14 10 -20 7 -6 -4 -9 -12 -6 -17 4 -5 2 -9 -4 -9 -6 0 -15 9 -21 20 -6
11 -15 18 -21 15 -5 -4 -9 -2 -9 3 0 5 -9 12 -21 15 -12 3 -18 10 -14 17 5 8
12 6 25 -5 11 -10 24 -14 31 -9z m-4 -58 c-3 -8 -6 -5 -6 6 -1 11 2 17 5 13 3
-3 4 -12 1 -19z m-167 -8 c0 -5 -5 -10 -11 -10 -5 0 -7 5 -4 10 3 6 8 10 11
10 2 0 4 -4 4 -10z m-170 -41 c0 -5 -5 -9 -12 -9 -6 0 -8 3 -5 7 4 3 1 13 -6
22 -11 14 -10 14 6 2 9 -7 17 -17 17 -22z"/>
<path d="M985 2000 c-3 -5 -1 -10 4 -10 6 0 11 5 11 10 0 6 -2 10 -4 10 -3 0
-8 -4 -11 -10z"/>
<path d="M2517 2004 c-12 -12 -8 -21 11 -26 10 -3 23 1 30 9 7 7 8 13 3 13 -5
0 -16 2 -23 5 -8 3 -17 2 -21 -1z"/>
<path d="M740 1991 c0 -5 9 -7 20 -4 11 3 20 7 20 9 0 2 -9 4 -20 4 -11 0 -20
-4 -20 -9z"/>
<path d="M1954 1975 c-9 -14 -15 -27 -13 -30 3 -2 12 10 21 26 21 36 15 39 -8
4z"/>
<path d="M1432 1960 c13 -21 37 -34 46 -25 3 3 0 5 -7 5 -7 0 -9 5 -6 10 3 6
-1 10 -9 10 -9 0 -16 5 -16 10 0 6 -5 10 -10 10 -6 0 -5 -8 2 -20z"/>
<path d="M1507 1962 c-20 -4 -18 -23 3 -30 7 -3 10 0 6 6 -3 6 0 12 6 15 19 6
6 14 -15 9z"/>
<path d="M1550 1963 c5 -2 8 -9 4 -14 -3 -5 0 -9 6 -9 15 0 7 23 -8 26 -7 1
-8 0 -2 -3z"/>
<path d="M2509 1960 c-1 -8 0 -30 1 -49 1 -26 -4 -39 -21 -52 -19 -14 -23 -26
-22 -61 6 -135 6 -178 0 -184 -13 -13 -249 -5 -264 9 -3 3 -4 76 -4 162 1 106
-2 155 -9 150 -5 -3 -10 -14 -10 -23 0 -14 -2 -15 -10 -2 -9 15 -25 7 -25 -13
0 -7 -12 -11 -25 -9 -18 1 -21 -1 -11 -7 8 -5 9 -10 2 -12 -7 -3 -6 -13 4 -31
7 -16 11 -28 7 -28 -4 0 -1 -4 7 -9 8 -6 24 -6 38 0 22 8 23 7 22 -34 -2 -65
-12 -92 -38 -95 -16 -3 -22 -9 -18 -21 2 -10 1 -25 -4 -32 -6 -11 -1 -15 18
-17 60 -5 27 -10 -69 -11 -57 0 -112 -2 -123 -5 -11 -2 -85 -7 -163 -11 -132
-6 -145 -5 -159 12 -12 15 -14 15 -10 2 4 -13 -2 -18 -24 -21 -17 -3 -32 -1
-35 4 -3 4 -16 8 -30 8 -13 0 -24 5 -24 11 0 8 -25 9 -84 4 -82 -6 -116 3 -81
22 9 6 -55 8 -157 7 l-173 -2 135 8 c74 4 140 8 146 9 7 0 14 7 17 15 4 11
-31 13 -206 10 l-212 -3 27 24 c16 13 35 28 44 33 9 5 14 14 10 21 -5 7 -16 1
-33 -19 -16 -19 -41 -34 -69 -41 -36 -9 -42 -14 -33 -25 6 -8 8 -15 3 -16 -5
-1 29 -5 76 -8 l85 -7 -102 1 c-97 1 -123 -4 -87 -18 33 -13 1 -23 -78 -25
-45 -1 -88 -7 -95 -13 -7 -5 -20 -7 -30 -4 -9 4 -19 2 -23 -4 -5 -8 -12 -7
-22 4 -9 8 -18 12 -22 9 -3 -4 -6 0 -6 8 0 20 -145 16 -168 -4 -22 -19 -24
-20 -174 -18 -108 1 -131 4 -146 19 -9 9 -25 16 -35 14 -16 -3 -17 -36 -17
-482 0 -409 2 -479 15 -484 8 -3 17 -1 20 4 3 4 -1 11 -7 13 -10 4 -10 6 0 6
6 1 12 8 12 16 0 9 6 12 17 8 12 -5 14 -3 8 7 -6 10 -3 12 13 8 24 -7 40 21
20 34 -10 6 -10 8 -1 8 7 0 22 9 33 20 11 11 26 17 35 14 10 -4 15 0 15 10 0
9 7 19 15 22 27 11 16 33 -17 37 -24 3 -20 4 17 6 28 1 56 5 63 10 7 4 36 4
65 0 68 -11 87 -5 87 29 0 45 12 102 21 102 5 0 9 -29 9 -65 l0 -65 80 0 80 0
0 39 c0 22 4 42 8 45 14 9 89 -6 89 -18 -1 -54 1 -56 53 -56 55 0 51 -6 54 90
1 15 8 26 18 28 14 3 17 -6 20 -55 l3 -58 73 -3 73 -3 -5 33 c-13 77 -12 83
12 86 12 2 36 -3 52 -11 16 -9 32 -12 35 -8 8 14 86 9 92 -5 8 -21 57 -17 86
6 34 27 37 26 37 -17 0 -21 3 -48 6 -60 l6 -22 312 0 c262 -1 319 2 364 16 31
9 48 19 41 23 -15 10 -2 30 19 30 15 0 15 -2 2 -10 -9 -6 -11 -10 -3 -10 7 0
10 -6 7 -13 -5 -14 17 -18 121 -21 l40 -1 3 66 3 65 -43 -3 c-32 -2 -39 0 -26
7 9 6 28 11 42 12 22 2 26 7 26 36 0 31 -4 35 -60 59 -37 17 -60 32 -60 42 0
10 3 12 8 5 6 -9 96 -54 108 -54 2 0 4 20 4 44 0 34 -4 46 -17 49 -17 4 -17 5
-1 6 14 1 17 9 13 54 -2 28 -4 60 -4 70 -1 13 -7 16 -23 13 -13 -3 -47 -8 -77
-11 -29 -3 -56 -7 -60 -9 -3 -2 -28 -7 -56 -10 -27 -4 -51 -11 -53 -17 -2 -5
-8 -9 -12 -9 -13 0 -61 -50 -56 -58 2 -4 0 -16 -5 -27 -7 -18 -8 -18 -9 5 -1
23 -2 23 -10 5 -7 -16 -9 -17 -9 -3 -1 17 -10 21 -69 33 -18 4 -45 13 -60 21
-32 16 -61 18 -82 4 -12 -8 -13 -12 -2 -19 13 -8 -46 -22 -90 -22 -10 0 -18
-5 -18 -10 0 -6 -5 -7 -12 -3 -6 4 -34 9 -62 11 -28 1 -73 4 -101 6 -68 5 -67
4 -54 30 11 19 10 20 -3 9 -29 -24 -48 -4 -48 52 0 53 -19 106 -20 56 -1 -19
-8 -9 -31 39 -25 51 -28 65 -17 72 9 6 4 9 -14 9 -34 0 -37 17 -5 23 18 4 17
4 -6 6 -26 1 -28 -2 -25 -31 2 -17 9 -33 16 -36 8 -2 10 3 6 15 -5 14 -4 15 4
4 8 -11 6 -25 -3 -48 -8 -19 -12 -40 -9 -47 3 -7 -2 -16 -10 -19 -12 -5 -16 0
-16 18 0 13 -4 26 -9 30 -6 3 -9 -11 -8 -34 l1 -40 42 6 42 5 -7 -31 c-3 -17
-3 -95 0 -174 3 -78 4 -146 2 -150 -9 -16 -34 17 -31 42 3 23 -1 26 -29 29
l-33 3 0 92 0 93 -123 -13 c-67 -6 -134 -12 -149 -12 l-28 -1 0 -79 0 -79 53
-10 52 -10 -44 -1 c-43 -1 -48 -15 -8 -23 15 -2 16 -6 5 -19 -7 -10 -24 -20
-37 -24 -22 -7 -23 -5 -17 20 6 22 4 26 -8 22 -9 -4 -16 -2 -16 2 0 5 7 12 16
15 9 4 15 9 12 12 -3 2 -16 0 -30 -5 -23 -8 -24 -7 -20 19 3 23 0 28 -22 32
-21 4 -26 1 -26 -15 0 -17 -5 -19 -45 -15 -28 4 -46 1 -49 -6 -2 -6 -5 -2 -5
10 -1 11 8 29 19 39 14 12 20 31 20 59 l0 41 -27 -40 c-27 -40 -92 -104 -105
-105 -5 0 -8 -8 -7 -17 0 -10 3 -13 5 -6 3 6 16 9 30 7 18 -3 24 0 24 13 0 11
7 6 16 -15 17 -32 34 -42 34 -19 1 7 5 6 13 -5 9 -11 18 -14 28 -7 22 14 29
11 29 -11 0 -20 -11 -26 -23 -14 -10 11 -81 11 -94 1 -9 -6 -13 -5 -13 2 0 6
5 11 10 11 6 0 10 5 10 10 0 6 -24 10 -60 8 -50 -2 -60 -5 -60 -20 0 -10 -7
-18 -16 -18 -11 0 -14 6 -9 20 4 14 2 20 -9 21 -20 2 -26 4 -49 13 -9 5 -24 5
-33 2 -8 -3 -12 -2 -9 4 4 6 0 17 -8 25 -13 13 -16 10 -21 -19 -4 -18 -3 -41
1 -51 5 -15 3 -17 -11 -12 -10 4 -20 7 -22 7 -2 0 -4 14 -4 31 0 20 -4 28 -12
23 -6 -4 -3 5 8 19 10 15 24 27 30 27 7 0 11 8 10 18 -2 24 49 30 58 6 3 -9 1
-23 -5 -31 -16 -18 -3 -30 39 -36 28 -5 31 -3 21 9 -6 8 -20 12 -30 9 -13 -4
-17 -1 -15 12 2 10 13 19 26 21 12 2 20 -1 16 -6 -3 -5 3 -17 13 -26 18 -16
21 -16 50 -1 17 8 62 45 100 80 38 37 77 65 89 65 11 0 27 7 36 15 8 8 20 15
26 15 7 0 6 5 -2 14 -7 8 -16 12 -20 9 -11 -6 -9 37 2 62 8 18 9 17 9 -7 1
-34 17 -37 25 -4 13 52 -21 77 -42 31 -11 -25 -32 -34 -32 -15 0 6 -4 10 -9
10 -6 0 -11 -17 -13 -37 -2 -30 -7 -37 -28 -40 -33 -5 -208 -4 -249 2 -21 2
-37 -2 -49 -14 -9 -10 -32 -19 -50 -19 -17 0 -41 -3 -51 -7 -11 -3 -22 -2 -25
3 -3 5 -17 7 -31 4 -20 -3 -25 0 -25 15 0 19 6 20 81 17 45 -2 78 0 75 3 -11
11 -37 14 -113 14 l-73 -1 0 30 0 30 63 -3 c74 -4 87 -1 80 21 -4 15 -3 15 6
2 6 -9 27 -15 53 -15 36 -1 44 -4 46 -22 3 -20 8 -21 85 -16 45 2 93 7 107 10
14 3 33 7 43 8 10 1 23 8 30 15 10 10 8 10 -10 1 -16 -8 -22 -8 -27 4 -3 9
-13 12 -28 9 -36 -9 -130 -4 -248 12 -25 3 -55 5 -67 5 -13 0 -23 3 -23 8 0 5
-12 9 -27 9 -71 -1 -105 41 -35 44 65 3 71 3 78 11 4 4 25 7 46 7 21 0 55 7
75 15 19 8 45 15 56 15 20 0 20 0 1 -15 -17 -13 -11 -14 66 -13 60 0 75 3 50
7 -19 4 56 8 168 8 149 1 202 -2 202 -10 0 -7 5 -6 11 3 8 11 12 12 16 3 7
-18 84 -16 108 3 18 13 20 13 27 -3 4 -12 7 -7 7 17 -1 19 -3 29 -6 23 -2 -7
-18 -13 -34 -13 -20 0 -28 4 -23 12 4 6 0 17 -10 23 -15 11 -14 13 9 17 14 3
25 1 25 -6 0 -7 3 -7 8 -1 10 14 115 14 124 1 6 -8 8 -8 8 0 0 7 35 12 103 13
56 1 119 3 140 5 20 2 39 1 42 -4 2 -4 31 -5 64 -3 33 2 62 -1 65 -6 4 -5 17
-8 31 -5 13 2 27 0 30 -6 3 -5 21 -11 38 -11 31 -1 30 -2 -8 -9 -22 -5 -114
-9 -205 -10 -91 -1 -174 -6 -185 -10 -11 -5 -14 -9 -7 -9 6 -1 12 -6 12 -12 0
-5 -5 -7 -12 -3 -7 5 -8 3 -3 -6 6 -10 10 -10 20 3 9 13 33 16 128 16 150 1
279 11 294 23 15 12 79 0 94 -18 6 -8 29 -14 53 -14 l41 1 -38 14 c-43 15 -57
25 -37 25 23 0 80 -23 80 -33 0 -4 4 -6 9 -2 5 3 40 5 78 4 379 -5 548 -10
583 -15 l41 -7 -2 139 c-1 77 -4 133 -6 126 -3 -8 -11 -5 -24 10 -10 13 -19
19 -19 13 0 -5 -9 5 -20 23 -11 17 -24 32 -30 32 -7 0 -8 6 -1 18 7 14 18 18
42 14 37 -5 56 15 31 34 -9 7 -17 16 -17 21 -1 17 -45 77 -46 63z m-9 -114 c0
-3 -4 -8 -10 -11 -5 -3 -10 -1 -10 4 0 6 5 11 10 11 6 0 10 -2 10 -4z m-326
-195 c3 -4 -4 -17 -17 -27 -22 -19 -22 -19 -4 2 9 11 14 24 10 27 -3 4 -4 7 0
7 3 0 8 -4 11 -9z m-150 -85 c-14 -10 -45 -15 -105 -14 -77 1 -80 1 -36 9 27
4 51 9 53 12 2 2 27 4 56 6 49 2 52 1 32 -13z m-1119 -25 c-2 -4 2 -8 10 -8 8
0 12 4 9 9 -3 4 0 8 5 8 6 0 11 -6 11 -14 0 -10 7 -12 22 -8 17 4 20 2 15 -12
-4 -10 -7 -24 -7 -32 0 -9 -10 -14 -27 -14 l-28 1 30 24 c31 26 28 33 -7 14
-29 -16 -300 -12 -310 4 -5 8 -8 9 -8 1 0 -7 -13 -14 -29 -16 -17 -2 -28 -1
-25 4 3 4 13 9 22 9 9 1 4 5 -13 8 -25 6 -20 9 35 15 200 22 306 24 295 7z
m1225 -22 c25 0 25 0 2 -9 -12 -5 -29 -7 -37 -4 -8 4 -15 1 -15 -5 0 -6 -5
-11 -11 -11 -8 0 -7 5 2 16 11 14 9 15 -24 9 -44 -8 -55 -9 -82 -5 -32 5 67
18 105 14 19 -2 46 -4 60 -5z m-1597 -16 c-13 -2 -33 -2 -45 0 -13 2 -3 4 22
4 25 0 35 -2 23 -4z m637 -122 c0 -6 -4 -13 -10 -16 -5 -3 -10 1 -10 9 0 9 5
16 10 16 6 0 10 -4 10 -9z m80 -140 c0 -5 10 -13 23 -17 12 -3 29 -13 39 -21
14 -13 33 -20 61 -22 5 -1 6 -5 3 -10 -3 -5 1 -12 10 -15 8 -3 12 -2 9 4 -3 6
1 7 9 4 18 -7 19 -13 8 -32 -5 -7 -16 -10 -25 -6 -14 5 -17 0 -17 -29 0 -34 1
-35 40 -35 31 -1 40 3 41 16 1 15 2 15 6 0 5 -20 43 -25 44 -5 0 10 2 10 6 0
7 -18 43 -16 43 2 0 9 -6 12 -15 9 -8 -4 -15 -1 -15 6 0 7 -8 10 -20 7 -11 -3
-23 -1 -26 4 -8 13 37 11 66 -4 14 -7 49 -12 78 -12 47 0 52 -2 52 -22 0 -20
6 -23 38 -24 20 -1 45 -1 55 0 9 1 17 -3 17 -9 0 -7 -38 -10 -117 -8 -86 2
-117 6 -116 15 2 9 -15 11 -65 7 -37 -3 -75 -7 -85 -9 -9 -2 -15 1 -11 6 3 5
0 9 -5 9 -6 0 -11 -3 -11 -7 0 -9 -115 -5 -140 3 -12 4 -9 10 12 27 15 12 28
35 31 52 3 24 4 22 6 -12 2 -60 28 -48 33 15 5 49 -6 78 -18 49 -10 -26 -21
-20 -20 11 1 24 -3 27 -34 30 -19 2 -39 8 -45 14 -7 7 -1 9 18 4 19 -4 26 -3
22 4 -3 5 -1 10 4 10 6 0 11 -4 11 -9z m790 -64 c0 -63 -17 -52 -22 14 -2 34
0 45 10 42 7 -3 12 -25 12 -56z m-44 17 c-4 -9 -9 -15 -11 -12 -3 3 -3 13 1
22 4 9 9 15 11 12 3 -3 3 -13 -1 -22z m-78 -17 c9 -18 21 -27 37 -27 13 0 25
-3 28 -7 2 -5 2 -3 1 4 -2 7 1 15 5 18 10 6 21 -18 21 -45 0 -10 7 -26 16 -34
8 -9 12 -20 9 -26 -3 -5 -2 -10 4 -10 5 0 13 5 16 10 12 20 36 11 33 -12 -2
-18 -11 -24 -35 -26 -31 -3 -41 2 -84 41 -10 9 -21 17 -24 17 -3 0 -9 0 -15 0
-5 0 -10 8 -10 17 0 22 -10 11 -15 -17 -8 -40 -13 -33 -12 17 0 26 -3 63 -7
82 -6 26 -5 32 5 29 8 -2 20 -17 27 -31z m199 11 c-3 -8 -6 -5 -6 6 -1 11 2
17 5 13 3 -3 4 -12 1 -19z m40 6 c-3 -3 -12 -4 -19 -1 -8 3 -5 6 6 6 11 1 17
-2 13 -5z m-718 -51 c-1 -5 -1 -15 0 -23 1 -13 2 -13 11 0 8 13 10 12 10 -2 0
-20 -8 -22 -29 -9 -8 5 -11 16 -8 25 6 16 18 22 16 9z m-382 -43 c2 -13 -3
-20 -13 -20 -11 0 -14 5 -10 16 3 9 6 21 6 26 0 18 14 -1 17 -22z m-809 5 c-7
-7 -218 -8 -225 -1 -4 3 47 6 112 6 65 0 116 -2 113 -5z m329 -42 c-3 -10 -5
-2 -5 17 0 19 2 27 5 18 2 -10 2 -26 0 -35z m1264 40 c-11 -4 -11 -7 0 -14 7
-4 10 -11 6 -16 -9 -9 -28 17 -21 29 3 4 11 8 17 7 8 0 7 -3 -2 -6z m-58 -33
c-4 -14 -13 -20 -32 -19 -23 2 -24 2 -3 6 14 3 22 12 22 24 0 11 4 18 9 15 5
-3 7 -15 4 -26z m-26 14 c-3 -3 -12 -4 -19 -1 -8 3 -5 6 6 6 11 1 17 -2 13 -5z
m-37 -24 c0 -5 -8 -10 -17 -10 -15 0 -16 2 -3 10 19 12 20 12 20 0z m-797 -7
c-7 -2 -19 -2 -25 0 -7 3 -2 5 12 5 14 0 19 -2 13 -5z m139 -10 c14 -13 21
-14 30 -5 19 19 28 14 28 -13 0 -23 -3 -25 -40 -23 -31 2 -39 6 -35 19 4 12
-1 15 -22 14 -19 -2 -21 -1 -5 2 12 2 20 9 17 14 -10 15 7 10 27 -8z m771 10
c-7 -2 -21 -2 -30 0 -10 3 -4 5 12 5 17 0 24 -2 18 -5z m124 1 c-3 -3 -12 -4
-19 -1 -8 3 -5 6 6 6 11 1 17 -2 13 -5z m183 -20 c0 -14 -3 -14 -15 -4 -8 7
-15 14 -15 16 0 2 7 4 15 4 8 0 15 -7 15 -16z m-1780 2 c0 -2 -7 -9 -15 -16
-13 -11 -14 -10 -9 4 5 14 24 23 24 12z m1560 -11 c0 -8 -4 -15 -9 -15 -5 0
-11 7 -15 15 -3 9 0 15 9 15 8 0 15 -7 15 -15z m-630 -4 c0 -20 -13 -41 -25
-41 -10 0 -11 5 -2 25 12 25 27 34 27 16z m527 3 c-3 -3 -12 -4 -19 -1 -8 3
-5 6 6 6 11 1 17 -2 13 -5z m-1586 -27 c-13 -13 -26 -3 -16 12 3 6 11 8 17 5
6 -4 6 -10 -1 -17z m150 0 c-10 -9 -11 -8 -5 6 3 10 9 15 12 12 3 -3 0 -11 -7
-18z m1089 13 c0 -5 -7 -7 -15 -4 -8 4 -15 8 -15 10 0 2 7 4 15 4 8 0 15 -4
15 -10z m-750 -16 c0 -2 -9 -4 -21 -4 -11 0 -18 4 -14 10 5 8 35 3 35 -6z m47
-6 c-3 -8 -6 -5 -6 6 -1 11 2 17 5 13 3 -3 4 -12 1 -19z m943 13 c0 -4 -11 -6
-25 -3 -14 2 -25 6 -25 8 0 2 11 4 25 4 14 0 25 -4 25 -9z m177 -7 c-3 -3 -12
-4 -19 -1 -8 3 -5 6 6 6 11 1 17 -2 13 -5z m188 -4 c3 -5 1 -10 -4 -10 -6 0
-11 5 -11 10 0 6 2 10 4 10 3 0 8 -4 11 -10z m-1960 -20 c3 -5 1 -10 -4 -10
-6 0 -11 5 -11 10 0 6 2 10 4 10 3 0 8 -4 11 -10z m122 4 c-3 -3 -12 -4 -19
-1 -8 3 -5 6 6 6 11 1 17 -2 13 -5z m103 -4 c0 -5 -7 -10 -16 -10 -8 0 -12 5
-9 10 3 6 10 10 16 10 5 0 9 -4 9 -10z m1620 -9 c0 -5 -9 -7 -20 -4 -11 3 -20
7 -20 9 0 2 9 4 20 4 11 0 20 -4 20 -9z m113 -18 c-7 -2 -21 -2 -30 0 -10 3
-4 5 12 5 17 0 24 -2 18 -5z m-254 -7 c-6 -6 -188 -66 -200 -66 -5 0 -9 5 -9
10 0 6 6 10 13 8 6 -1 23 4 35 11 13 7 26 10 30 7 3 -3 15 0 27 8 19 13 45 19
94 25 8 0 12 -1 10 -3z"/>
<path d="M708 1513 c39 -2 105 -2 145 0 39 1 7 3 -73 3 -80 0 -112 -2 -72 -3z"/>
<path d="M1324 1115 c-7 -50 -3 -61 21 -51 12 4 15 17 13 48 -4 58 -25 60 -34
3z"/>
<path d="M1568 1063 c6 -2 18 -2 25 0 6 3 1 5 -13 5 -14 0 -19 -2 -12 -5z"/>
<path d="M1610 1055 c0 -10 9 -15 28 -14 27 2 27 2 2 7 -23 4 -24 5 -5 13 19
7 19 8 -2 8 -14 1 -23 -5 -23 -14z"/>
<path d="M1568 1043 c6 -2 18 -2 25 0 6 3 1 5 -13 5 -14 0 -19 -2 -12 -5z"/>
<path d="M1975 1110 c-3 -5 -1 -10 4 -10 6 0 11 5 11 10 0 6 -2 10 -4 10 -3 0
-8 -4 -11 -10z"/>
<path d="M1894 1945 c-10 -8 -14 -15 -7 -15 19 0 43 11 43 21 0 13 -14 11 -36
-6z"/>
<path d="M1996 1934 c-3 -8 -10 -13 -15 -12 -8 3 -16 -10 -8 -13 11 -6 107 15
107 24 0 6 -2 8 -6 5 -3 -3 -20 -2 -39 2 -25 6 -35 4 -39 -6z"/>
<path d="M557 1933 c-3 -5 1 -14 9 -21 12 -10 14 -10 14 2 0 17 -16 30 -23 19z"/>
<path d="M596 1918 c3 -5 10 -6 15 -3 13 9 11 12 -6 12 -8 0 -12 -4 -9 -9z"/>
<path d="M525 1900 c-4 -6 3 -10 14 -10 25 0 27 6 6 13 -8 4 -17 2 -20 -3z"/>
<path d="M1930 1906 c0 -2 7 -7 16 -10 8 -3 12 -2 9 4 -6 10 -25 14 -25 6z"/>
<path d="M1827 1893 c-13 -12 -7 -22 12 -20 15 1 17 4 9 14 -12 15 -13 15 -21
6z"/>
<path d="M1880 1890 c20 -13 33 -13 25 0 -3 6 -14 10 -23 10 -15 0 -15 -2 -2
-10z"/>
<path d="M2058 1886 c-24 -18 -22 -26 5 -24 14 1 24 9 24 20 2 21 -6 22 -29 4z"/>
<path d="M1785 1880 c-3 -5 -1 -10 4 -10 6 0 11 5 11 10 0 6 -2 10 -4 10 -3 0
-8 -4 -11 -10z"/>
<path d="M175 1870 c4 -6 11 -8 16 -5 14 9 11 15 -7 15 -8 0 -12 -5 -9 -10z"/>
<path d="M275 1860 c-3 -5 1 -10 10 -10 9 0 13 5 10 10 -3 6 -8 10 -10 10 -2
0 -7 -4 -10 -10z"/>
<path d="M95 1820 c3 -5 8 -10 11 -10 2 0 4 5 4 10 0 6 -5 10 -11 10 -5 0 -7
-4 -4 -10z"/>
<path d="M1105 1740 l-80 -6 88 -2 c52 -1 87 2 87 8 0 6 -3 9 -7 8 -5 -1 -44
-5 -88 -8z"/>
<path d="M2120 1695 c0 -14 -3 -15 -15 -5 -8 7 -15 9 -15 6 0 -4 7 -14 15 -22
8 -9 15 -11 15 -5 0 5 7 11 17 13 15 3 15 4 0 17 -15 12 -17 11 -17 -4z"/>
<path d="M2161 1694 c0 -11 3 -14 6 -6 3 7 2 16 -1 19 -3 4 -6 -2 -5 -13z"/>
<path d="M2050 1640 c0 -5 5 -10 11 -10 5 0 7 5 4 10 -3 6 -8 10 -11 10 -2 0
-4 -4 -4 -10z"/>
<path d="M2095 1641 c-3 -5 -2 -12 3 -15 5 -3 9 1 9 9 0 17 -3 19 -12 6z"/>
<path d="M1713 1613 c15 -2 37 -2 50 0 12 2 0 4 -28 4 -27 0 -38 -2 -22 -4z"/>
<path d="M1238 1543 c7 -3 16 -2 19 1 4 3 -2 6 -13 5 -11 0 -14 -3 -6 -6z"/>
<path d="M1298 1543 c7 -3 16 -2 19 1 4 3 -2 6 -13 5 -11 0 -14 -3 -6 -6z"/>
<path d="M1186 1525 c4 -8 12 -15 20 -15 19 0 18 16 -2 24 -22 9 -24 8 -18 -9z"/>
<path d="M1000 1520 c0 -5 5 -10 10 -10 6 0 10 5 10 10 0 6 -4 10 -10 10 -5 0
-10 -4 -10 -10z"/>
<path d="M1293 1523 c37 -2 97 -2 135 0 37 2 6 3 -68 3 -74 0 -105 -1 -67 -3z"/>
<path d="M1700 1501 c0 -6 -19 -12 -42 -14 -40 -4 -39 -4 6 -3 30 1 51 6 54
14 2 6 -1 12 -7 12 -6 0 -11 -4 -11 -9z"/>
<path d="M1200 1488 c0 -8 9 -14 21 -15 12 -1 19 3 16 10 -5 17 -37 21 -37 5z"/>
<path d="M1563 1473 c9 -2 25 -2 35 0 9 3 1 5 -18 5 -19 0 -27 -2 -17 -5z"/>
<path d="M578 1453 c17 -2 47 -2 65 0 17 2 3 4 -33 4 -36 0 -50 -2 -32 -4z"/>
<path d="M688 1453 c7 -3 16 -2 19 1 4 3 -2 6 -13 5 -11 0 -14 -3 -6 -6z"/>
<path d="M1117 1326 c-4 -10 0 -12 14 -9 22 6 26 23 5 23 -8 0 -16 -6 -19 -14z"/>
<path d="M750 1295 c0 -8 2 -15 4 -15 2 0 6 7 10 15 3 8 1 15 -4 15 -6 0 -10
-7 -10 -15z"/>
<path d="M2345 1240 c3 -14 -2 -20 -13 -20 -16 -1 -15 -2 1 -14 12 -9 18 -28
19 -59 0 -25 6 -48 12 -50 7 -3 18 -30 26 -61 9 -40 17 -55 27 -52 17 7 17
-15 -2 -40 -8 -10 -14 -30 -14 -44 1 -14 3 -18 5 -10 3 8 16 20 29 27 21 9 25
9 25 -4 0 -12 2 -12 16 1 10 10 13 24 9 37 -5 14 -10 18 -14 10 -14 -22 -42
33 -80 151 -24 76 -26 95 -10 100 6 2 2 13 -9 26 -24 27 -32 28 -27 2z"/>
<path d="M302 1121 c2 -7 7 -12 11 -12 12 1 9 15 -3 20 -7 2 -11 -2 -8 -8z"/>
<path d="M524 1108 l-19 -23 23 19 c21 18 27 26 19 26 -2 0 -12 -10 -23 -22z"/>
<path d="M2495 1041 c-3 -6 1 -11 10 -11 13 0 14 -4 5 -20 -14 -26 -8 -66 13
-90 9 -11 17 -26 18 -33 0 -6 4 -3 9 8 6 14 9 3 8 -37 -1 -32 -5 -58 -9 -58
-4 0 -2 -21 6 -47 7 -27 16 -73 20 -103 3 -30 8 -72 11 -92 5 -34 3 -39 -35
-64 -41 -27 -56 -49 -25 -37 12 4 15 1 12 -13 -2 -10 -10 -19 -18 -19 -11 0
-16 -17 -21 -65 -3 -36 -4 -67 -2 -69 2 -2 12 4 22 13 11 10 23 16 28 13 4 -3
7 32 5 76 -2 59 0 78 7 67 6 -8 11 -46 11 -85 1 -56 3 -66 12 -51 7 12 13 120
16 292 l5 273 -23 19 c-17 14 -23 29 -24 65 0 26 -5 47 -9 47 -5 0 -5 5 -2 10
3 6 2 10 -4 10 -5 0 -16 3 -24 6 -8 3 -18 1 -22 -5z m90 -161 c3 -5 1 -10 -4
-10 -6 0 -11 5 -11 10 0 6 2 10 4 10 3 0 8 -4 11 -10z"/>
<path d="M2465 1030 c-3 -5 -1 -10 4 -10 6 0 11 5 11 10 0 6 -2 10 -4 10 -3 0
-8 -4 -11 -10z"/>
<path d="M2426 878 c-3 -13 -5 -32 -5 -43 1 -11 5 -2 10 19 10 42 6 62 -5 24z"/>
<path d="M2479 853 c-13 -16 -12 -17 4 -4 16 13 21 21 13 21 -2 0 -10 -8 -17
-17z"/>
<path d="M440 831 c0 -6 4 -12 8 -15 5 -3 9 1 9 9 0 8 -4 15 -9 15 -4 0 -8 -4
-8 -9z"/>
<path d="M2470 810 c-12 -16 -19 -30 -16 -30 2 0 14 14 26 30 12 17 19 30 16
30 -2 0 -14 -13 -26 -30z"/>
<path d="M460 795 c0 -5 5 -17 10 -25 5 -8 10 -10 10 -5 0 6 -5 17 -10 25 -5
8 -10 11 -10 5z"/>
<path d="M1872 763 c6 -36 46 -46 44 -10 -1 15 -8 23 -24 25 -18 3 -23 -1 -20
-15z m30 -15 c-7 -7 -12 -8 -12 -2 0 14 12 26 19 19 2 -3 -1 -11 -7 -17z"/>
<path d="M1936 771 c-3 -4 3 -15 14 -24 14 -12 21 -13 29 -4 7 9 2 16 -15 24
-13 6 -26 8 -28 4z"/>
<path d="M1996 771 c-8 -14 10 -36 32 -38 17 -2 22 2 22 20 0 16 -6 22 -25 23
-14 1 -27 -1 -29 -5z"/>
<path d="M2530 759 c0 -11 -5 -30 -11 -42 -12 -21 -11 -22 8 -4 13 12 19 26
15 42 -5 30 -12 33 -12 4z"/>
<path d="M140 745 c-7 -9 -8 -15 -2 -15 5 0 12 7 16 15 3 8 4 15 2 15 -2 0 -9
-7 -16 -15z"/>
<path d="M381 717 c2 -1 15 -11 29 -22 l25 -20 -19 23 c-11 12 -24 22 -29 22
-6 0 -8 -1 -6 -3z"/>
<path d="M2431 674 c0 -11 3 -14 6 -6 3 7 2 16 -1 19 -3 4 -6 -2 -5 -13z"/>
<path d="M444 672 c3 -6 -16 -23 -46 -40 -104 -57 -118 -67 -128 -96 -5 -15
-8 -32 -5 -35 2 -4 -1 -38 -7 -74 l-11 -67 -123 0 -124 0 0 -181 0 -180 130 2
c101 2 130 5 130 16 0 9 -14 13 -44 13 -43 0 -67 12 -47 24 5 3 43 11 85 18
67 10 75 14 70 30 -3 11 0 18 7 18 8 0 10 -17 6 -60 -4 -45 -2 -60 8 -60 10 0
11 16 8 63 -4 50 -2 64 8 65 62 4 125 15 136 24 7 6 13 7 13 4 0 -4 10 -2 21
5 15 8 19 8 15 0 -4 -6 -2 -11 3 -11 6 0 11 5 11 10 0 6 10 10 22 10 47 0 6
12 -58 17 -48 3 -72 10 -80 21 -7 9 -10 20 -8 24 3 5 -79 8 -182 8 -103 0
-185 2 -182 5 2 3 71 5 152 6 l147 1 6 29 c3 16 8 29 12 29 3 0 16 3 29 6 19
5 22 2 22 -20 0 -16 -5 -26 -15 -26 -8 0 -15 -4 -15 -8 0 -5 24 -10 54 -11 53
-2 55 -1 58 26 l4 28 11 -25 10 -25 192 -2 c157 -1 193 1 198 12 4 12 7 12 20
0 18 -19 28 -19 47 1 10 9 16 33 16 59 0 49 8 77 20 70 5 -3 11 -1 15 5 3 5
-6 15 -20 20 -15 6 -43 24 -63 40 -20 17 -41 30 -45 30 -5 0 -31 -16 -58 -35
-47 -35 -48 -38 -51 -93 l-3 -57 -62 -3 c-35 -2 -63 -7 -63 -12 0 -6 -7 -10
-15 -10 -20 0 -85 32 -85 42 0 4 -14 8 -31 8 -31 0 -31 1 -24 38 4 20 7 44 7
52 -1 36 22 120 30 108 5 -9 8 -5 8 11 0 20 2 21 15 11 10 -9 15 -9 15 -1 0 6
8 11 18 12 13 0 12 3 -5 11 -13 6 -23 17 -23 25 0 7 -4 13 -10 13 -5 0 -10 -4
-10 -9 0 -5 -7 -11 -15 -15 -8 -3 -14 0 -12 6 1 7 -4 12 -11 13 -8 0 -26 13
-42 29 -17 17 -34 25 -41 20 -7 -4 -10 -3 -5 4 3 6 1 14 -5 18 -7 4 -9 3 -5
-4z m-234 -362 c0 -5 -4 -10 -10 -10 -5 0 -10 5 -10 10 0 6 5 10 10 10 6 0 10
-4 10 -10z m120 3 c0 -17 -18 -34 -38 -38 -24 -4 -29 14 -10 33 13 13 48 16
48 5z m-60 -223 c0 -13 -20 -13 -40 0 -12 8 -9 10 13 10 15 0 27 -4 27 -10z"/>
<path d="M708 583 c6 -2 18 -2 25 0 6 3 1 5 -13 5 -14 0 -19 -2 -12 -5z"/>
<path d="M2532 560 c0 -14 2 -19 5 -12 2 6 2 18 0 25 -3 6 -5 1 -5 -13z"/>
<path d="M2461 542 c-6 -12 -11 -27 -11 -34 1 -7 8 0 16 15 9 16 13 31 11 34
-3 2 -10 -4 -16 -15z"/>
<path d="M1096 381 c-33 -34 -37 -43 -34 -82 l3 -44 50 2 c28 1 60 2 73 2 19
1 22 6 22 42 0 32 4 42 20 46 11 3 18 9 15 13 -3 5 -13 6 -23 4 -10 -3 -29 7
-46 25 -17 17 -32 31 -36 31 -3 0 -23 -17 -44 -39z"/>
<path d="M1293 356 c-22 -18 -30 -34 -31 -61 l-1 -35 62 -1 c34 0 72 -2 85 -5
30 -5 28 14 -3 28 -26 12 -34 38 -12 38 6 0 3 6 -8 12 -11 6 -30 19 -41 30
-21 19 -22 19 -51 -6z"/>
<path d="M2591 274 c0 -11 3 -14 6 -6 3 7 2 16 -1 19 -3 4 -6 -2 -5 -13z"/>
<path d="M1448 263 c7 -3 16 -2 19 1 4 3 -2 6 -13 5 -11 0 -14 -3 -6 -6z"/>
<path d="M1501 226 c-25 -15 -92 -68 -147 -117 l-102 -88 -200 11 c-203 11
-233 9 -266 -15 -17 -12 -15 -14 23 -15 30 -1 41 2 41 13 0 8 4 15 10 15 5 0
7 -7 4 -14 -5 -13 30 -15 243 -15 136 0 242 3 236 6 -14 5 -18 43 -5 43 4 0
15 -6 24 -14 13 -10 15 -15 6 -24 -16 -16 4 -15 21 0 11 10 13 10 7 1 -11 -20
5 -15 29 10 37 36 55 48 55 38 0 -5 -12 -19 -27 -30 -30 -24 -23 -42 9 -22 11
7 17 8 13 2 -10 -17 16 -13 37 6 17 15 18 15 18 -1 0 -15 16 -16 154 -15 l155
0 4 42 4 42 1 -42 2 -43 45 0 c38 0 45 3 45 20 0 11 5 20 10 20 6 0 10 -9 10
-20 0 -13 7 -20 19 -20 14 0 17 6 13 25 -2 15 0 25 7 25 6 0 11 -11 11 -25 0
-21 5 -25 30 -25 16 0 33 7 38 16 8 14 10 14 25 -1 15 -14 17 -14 17 -1 0 8 5
18 12 22 6 4 8 3 5 -2 -3 -6 -2 -16 4 -24 6 -10 9 -11 9 -2 0 6 7 12 15 12 8
0 15 -6 15 -12 0 -9 4 -8 10 2 5 8 7 39 4 68 -3 32 -2 52 5 52 5 0 12 -30 14
-68 2 -37 4 -7 5 66 l2 132 -111 0 c-71 0 -108 -4 -104 -10 3 -5 1 -10 -4 -10
-6 0 -11 5 -11 10 0 6 -7 10 -15 10 -8 0 -15 -4 -15 -10 0 -5 -7 -10 -16 -10
-8 0 -12 4 -9 10 7 11 -214 8 -232 -3 -6 -4 -23 -3 -37 3 -28 10 -59 4 -50
-11 3 -5 0 -9 -5 -9 -6 0 -11 6 -11 14 0 23 -49 14 -99 -18z m139 -15 c0 -5
-7 -12 -16 -15 -22 -9 -24 -8 -24 9 0 8 9 15 20 15 11 0 20 -4 20 -9z m-60
-16 c0 -18 -8 -18 -40 0 l-25 14 33 1 c22 0 32 -5 32 -15z m597 9 c-3 -3 -12
-4 -19 -1 -8 3 -5 6 6 6 11 1 17 -2 13 -5z m-351 -21 c-4 -25 -26 -28 -26 -4
0 12 6 21 14 21 8 0 13 -8 12 -17z m-286 -38 c0 -3 -9 -5 -20 -5 -15 0 -20 7
-20 27 l0 27 20 -22 c11 -12 20 -24 20 -27z m637 39 c-3 -3 -12 -4 -19 -1 -8
3 -5 6 6 6 11 1 17 -2 13 -5z m33 -25 c0 -10 -3 -19 -7 -19 -5 0 -8 11 -8 24
0 13 3 22 8 19 4 -2 7 -13 7 -24z m-733 -4 c0 -8 -6 -15 -13 -15 -8 0 -11 6
-8 15 4 8 9 15 13 15 4 0 8 -7 8 -15z m570 0 c0 -8 -4 -15 -9 -15 -4 0 -8 7
-8 15 0 8 4 15 8 15 5 0 9 -7 9 -15z m-302 -15 c3 -5 1 -10 -4 -10 -6 0 -11 5
-11 10 0 6 2 10 4 10 3 0 8 -4 11 -10z m362 4 c-3 -3 -12 -4 -19 -1 -8 3 -5 6
6 6 11 1 17 -2 13 -5z m-627 -25 c0 -13 -13 -11 -35 5 -18 13 -18 14 8 9 15
-3 27 -9 27 -14z m217 -11 c-3 -7 -5 -2 -5 12 0 14 2 19 5 13 2 -7 2 -19 0
-25z m443 1 c0 -5 -4 -9 -10 -9 -5 0 -10 7 -10 16 0 8 5 12 10 9 6 -3 10 -10
10 -16z m40 6 c0 -8 -7 -15 -15 -15 -16 0 -20 12 -8 23 11 12 23 8 23 -8z
m-747 -14 c-2 -6 4 -11 13 -11 12 0 9 -6 -10 -21 -15 -12 -29 -19 -32 -17 -9
9 9 69 20 65 6 -3 10 -10 9 -16z m122 9 c-9 -15 -45 -32 -45 -22 0 5 10 14 23
20 29 14 29 14 22 2z m115 0 c0 -5 -2 -10 -4 -10 -3 0 -8 5 -11 10 -3 6 -1 10
4 10 6 0 11 -4 11 -10z m430 0 c0 -5 -2 -10 -4 -10 -3 0 -8 5 -11 10 -3 6 -1
10 4 10 6 0 11 -4 11 -10z m-713 -67 c-3 -2 -15 1 -27 7 l-21 11 23 24 23 24
3 -30 c2 -17 1 -33 -1 -36z m224 16 c-9 -22 -10 -22 -10 -3 -1 11 2 24 6 27
12 12 14 0 4 -24z m277 19 c-2 -6 -10 -13 -16 -14 -7 -1 -8 0 -2 3 5 2 8 9 4
14 -3 5 0 9 6 9 7 0 10 -5 8 -12z m202 8 c0 -3 -4 -8 -10 -11 -5 -3 -10 -1
-10 4 0 6 5 11 10 11 6 0 10 -2 10 -4z m17 -18 c-3 -8 -6 -5 -6 6 -1 11 2 17
5 13 3 -3 4 -12 1 -19z m33 7 c0 -8 -4 -15 -10 -15 -5 0 -10 7 -10 15 0 8 5
15 10 15 6 0 10 -7 10 -15z m-490 1 c0 -3 -4 -8 -10 -11 -5 -3 -10 -1 -10 4 0
6 5 11 10 11 6 0 10 -2 10 -4z m400 -6 c0 -5 -4 -10 -10 -10 -5 0 -10 5 -10
10 0 6 5 10 10 10 6 0 10 -4 10 -10z m125 0 c-3 -5 -10 -10 -16 -10 -5 0 -9 5
-9 10 0 6 7 10 16 10 8 0 12 -4 9 -10z m-358 -20 c-1 -22 -17 -28 -17 -7 0 12
9 27 16 27 2 0 2 -9 1 -20z m138 10 c-3 -5 -12 -10 -18 -10 -7 0 -6 4 3 10 19
12 23 12 15 0z m225 -14 c0 -2 -7 -7 -16 -10 -8 -3 -12 -2 -9 4 6 10 25 14 25
6z m-400 -10 c0 -3 -4 -8 -10 -11 -5 -3 -10 -1 -10 4 0 6 5 11 10 11 6 0 10
-2 10 -4z m197 -18 c-3 -8 -6 -5 -6 6 -1 11 2 17 5 13 3 -3 4 -12 1 -19z"/>
<path d="M1124 216 c-16 -7 -53 -16 -83 -19 -29 -3 -59 -11 -65 -16 -7 -6 -36
-12 -65 -14 -28 -2 -57 -9 -63 -15 -7 -7 -8 -12 -3 -13 18 -2 145 3 163 6 9 2
30 4 45 4 16 1 26 5 22 11 -3 5 4 10 17 10 26 1 88 1 103 0 6 0 36 3 68 6 31
4 57 3 57 -2 0 -10 83 -9 99 1 21 13 10 21 -21 17 -47 -6 -21 19 29 29 24 4
-11 6 -92 6 -106 -2 -129 -5 -127 -16 2 -11 0 -12 -10 -4 -24 19 -44 21 -74 9z"/>
<path d="M2470 180 c0 -5 5 -10 11 -10 5 0 7 5 4 10 -3 6 -8 10 -11 10 -2 0
-4 -4 -4 -10z"/>
<path d="M1163 133 c9 -2 23 -2 30 0 6 3 -1 5 -18 5 -16 0 -22 -2 -12 -5z"/>
<path d="M2571 88 c1 -24 3 -27 6 -10 2 12 9 22 14 22 5 0 9 5 9 10 0 6 -7 10
-15 10 -11 0 -15 -10 -14 -32z"/>
<path d="M390 89 c-22 -8 -22 -8 8 -5 l34 3 -4 -44 c-2 -29 1 -43 9 -43 8 0
12 16 10 50 -2 53 -7 57 -57 39z"/>
<path d="M2343 93 c9 -2 23 -2 30 0 6 3 -1 5 -18 5 -16 0 -22 -2 -12 -5z"/>
<path d="M2460 61 c0 -12 4 -21 9 -21 5 0 12 -10 14 -23 3 -12 4 -4 4 17 -2
40 -27 65 -27 27z"/>
<path d="M2510 71 c0 -13 26 -32 33 -24 14 13 6 33 -13 33 -11 0 -20 -4 -20
-9z"/>
<path d="M2400 35 c0 -24 5 -35 15 -35 10 0 15 11 15 35 0 24 -5 35 -15 35
-10 0 -15 -11 -15 -35z"/>
</g>
</svg>
